<svg width="536" height="216" viewBox="0 0 536 216" fill="none" xmlns="http://www.w3.org/2000/svg">
<path d="M2.34052 89.6114C4.80418 88.0707 12.9007 88.6841 16.1462 88.7066L34.6283 88.6587C51.7496 88.7416 66.7837 87.2612 80.535 100.543C87.5121 107.282 90.0957 118.279 89.8745 127.732C89.6475 137.433 86.8419 144.243 80.0376 151.289C76.9208 154.517 70.393 157.729 68.5826 160.223C69.2847 165.287 87.587 192.871 91.3305 199.067C93.1781 202.125 96.027 205.872 96.736 209.41C96.9162 210.309 96.6713 211.17 96.1359 211.907C95.5884 212.66 94.8405 212.965 93.9507 213.091C91.1077 213.496 73.8711 213.638 72.073 212.386C71.758 212.167 71.5104 211.856 71.2853 211.55C68.4805 209.501 61.2074 194.522 59.08 190.547C57.8539 188.257 45.0023 165.701 44.2765 165.236C42.6168 164.173 29.0324 164.804 26.5069 165.22C25.9363 180.535 26.9598 196.145 25.8708 211.369C25.6735 214.127 6.32987 213.045 3.6789 212.809C2.71818 212.723 1.76611 210.791 1.44664 209.982C1.2014 206.23 1.38685 200.439 1.39755 196.529L1.42952 171.901L1.37271 95.435C1.37524 93.3641 1.01494 91.5939 2.37304 90.2393L2.34052 89.6114ZM26.7265 147.053C30.6363 147.126 34.5474 147.134 38.4575 147.074C44.6025 147.031 53.3347 147.614 58.2047 143.226C59.5582 142.006 60.8835 139.884 62.0859 138.589C64.2664 134.732 64.4414 127.012 63.9029 122.654C59.7692 107.287 51.1823 109.115 37.9124 109.013C34.1248 108.984 30.2722 108.645 26.4976 109.149C26.352 117.489 26.2728 125.83 26.2598 134.172C26.2662 137.245 26.1946 144.396 26.7265 147.053Z" fill="white"/>
<path d="M2.33984 89.6114C4.8035 88.0707 12.9 88.6841 16.1455 88.7066L34.6276 88.6587C51.7489 88.7416 66.783 87.2612 80.5344 100.543C87.5114 107.282 90.095 118.279 89.8738 127.732C89.6468 137.433 86.8412 144.243 80.0369 151.289C76.9201 154.517 70.3923 157.729 68.5819 160.223C69.2841 165.287 87.5863 192.871 91.3299 199.067C93.1774 202.125 96.0263 205.872 96.7353 209.41C96.9155 210.309 96.6707 211.17 96.1352 211.907C95.5877 212.66 94.8399 212.965 93.95 213.091C91.107 213.496 73.8704 213.638 72.0723 212.386C71.7573 212.167 71.5097 211.856 71.2846 211.55C76.3849 212.974 87.3763 213.053 92.836 212.478C93.7698 212.38 95.1978 211.72 95.7484 210.861C96.3292 209.954 95.673 208.098 95.2237 207.183C93.0734 202.806 90.122 198.391 87.5343 194.262L73.6228 171.901C72.6235 170.27 66.2682 161.41 68.3973 158.587C68.8262 158.018 69.4249 157.61 70.0525 157.282C75.8247 154.265 80.6887 150.285 84.2202 144.787C90.9939 134.24 90.5614 120.898 85.7772 109.662C83.3648 103.996 79.245 99.708 73.956 96.6556C69.1228 93.7108 64.5802 91.3402 58.8493 90.5557C48.2937 89.1108 36.6796 89.3095 26.036 89.5951C18.797 89.7894 9.17389 88.6959 2.37237 90.2393L2.33984 89.6114Z" fill="#73D6EC"/>
<path d="M25.9485 147.849C25.7636 143.713 25.0469 110.134 26.3244 108.599C27.7524 107.882 29.5526 107.949 31.1344 107.95C34.7754 107.958 38.4164 107.986 42.057 108.035C48.3919 108.126 54.9992 107.717 59.9157 112.591C62.2784 114.933 63.9262 119.293 63.9026 122.655C59.7688 107.287 51.1819 109.115 37.912 109.014C34.1244 108.984 30.2719 108.646 26.4972 109.149C26.3516 117.489 26.2724 125.83 26.2595 134.172C26.2658 137.245 26.1942 144.397 26.7261 147.053C30.6359 147.127 34.547 147.134 38.4571 147.074C44.6021 147.032 53.3343 147.615 58.2043 143.226C59.5578 142.007 60.8831 139.884 62.0855 138.589C61.7091 140.169 60.2335 142.119 59.0559 143.189C53.2493 148.464 46.4436 147.963 39.285 148.015C34.839 148.053 30.3924 147.998 25.9485 147.849Z" fill="#73D6EC"/>
<path d="M112.774 127.529C112.303 121.295 115.048 121.703 120.402 121.77C124.076 121.816 134.831 121.243 137.553 122.837C139.123 125.232 138.476 131.29 138.478 134.332C138.482 147.8 137.654 161.197 138.29 174.669C138.679 182.913 136.962 193.356 147.779 195.582C154.999 197.067 161.871 194.027 167.908 190.457C168.185 190.234 168.837 189.506 169.116 189.212C169.761 184.586 169.475 175.209 169.472 170.101C169.54 160.376 169.54 150.65 169.473 140.925C169.416 137.51 168.778 127.946 169.484 125.321C169.63 124.311 169.71 123.201 170.612 122.549C172.231 121.379 189.657 121.56 192.239 122.186C192.995 122.37 193.746 122.582 194.229 123.227C194.935 126.859 194.668 133.839 194.652 137.807L194.644 158.176L194.62 192.202C194.621 197.699 194.654 203.199 194.63 208.694C194.622 210.666 193.946 212.532 191.776 212.842C188.597 213.296 185.246 213.121 182.032 213.159C180.033 213.182 177.047 213.298 175.212 212.577C172.472 210.122 173.055 203.25 170.208 203.39C167.466 204.359 164.718 207.507 162.247 208.865C157.864 211.382 153.351 213.203 148.451 214.467C144.869 215.391 141.35 215.055 137.776 215.329C125.833 216.242 115.194 208.351 113.41 196.297C112.295 188.766 112.794 179.171 112.807 171.181L112.774 127.529Z" fill="white"/>
<path d="M112.774 127.529C112.302 121.295 115.047 121.703 120.402 121.769C124.076 121.815 134.831 121.243 137.552 122.837C139.122 125.231 138.475 131.289 138.478 134.332C138.482 147.8 137.654 161.197 138.289 174.668C138.679 182.913 136.962 193.356 147.779 195.582C154.999 197.067 161.871 194.027 167.908 190.456C167.015 191.561 165.848 192.539 164.643 193.293C160.123 196.121 152.441 197.829 147.216 196.607C143.622 195.767 139.963 192.75 138.61 189.274C137.29 185.882 137.603 181.168 137.473 177.524C137.241 171.062 137.035 164.565 137.058 158.098C137.077 152.532 138.77 126.794 136.711 123.616C136.476 123.253 135.8 123.089 135.388 123.017C132.383 122.496 118.834 122.576 115.577 122.957C114.906 123.036 114.422 123.2 113.865 123.587C112.93 124.834 112.977 125.933 112.774 127.529Z" fill="#73D6EC"/>
<path d="M169.484 125.321C170.385 145.752 170.332 166.616 170.018 187.091C170.006 187.857 169.556 188.606 169.116 189.212C169.761 184.586 169.475 175.209 169.472 170.101C169.54 160.376 169.54 150.651 169.473 140.925C169.416 137.51 168.778 127.946 169.484 125.321Z" fill="#8CBDB7"/>
<path d="M345.012 125.511C345.018 124.509 344.976 123.566 345.733 122.799C347.59 120.918 362.445 121.674 365.857 121.839C367.128 121.901 369.12 121.961 370.045 122.934C371.343 126.258 370.246 141.955 370.235 146.658L370.287 184.9C370.301 188.754 370.705 209.967 369.935 212.178C367.929 213.85 360.61 212.855 357.842 213.102C355.82 213.282 351.654 213.529 350.245 211.799C348.262 208.829 348.405 206.005 346.803 203.512C345.513 203.491 339.729 207.643 338.222 208.609C326.239 216.312 303.094 219.914 293.486 206.747C287.455 198.485 288.633 187.476 288.647 177.805L288.677 147.635L288.691 134.158C288.669 131.337 287.835 124 290.212 122.415C294.584 121.367 309.043 121.669 313.53 122.612C313.954 127.106 313.66 136.28 313.646 141.196L313.629 178.172C313.687 184.566 314.392 191.592 320.981 194.703C327.466 197.763 338.5 194.718 343.749 190.189C345.158 188.997 345.125 186.164 345.098 184.405C344.792 164.864 345.563 145.019 345.012 125.511Z" fill="white"/>
<path d="M345.013 125.511C345.018 124.509 344.977 123.566 345.734 122.799C347.591 120.918 362.446 121.674 365.858 121.839C367.129 121.901 369.121 121.961 370.045 122.934C371.344 126.258 370.246 141.955 370.235 146.658L370.287 184.9C370.301 188.754 370.706 209.967 369.935 212.178C367.929 213.85 360.611 212.855 357.843 213.102C355.82 213.282 351.655 213.529 350.246 211.799C353.636 212.329 366.097 212.47 369.489 211.956C369.621 207.222 369.283 200.974 369.258 196.016L369.239 160.381C369.239 158.233 369.294 155.997 369.236 153.856C368.964 143.544 370.07 133.325 369.652 123.018C363.742 122.305 353.171 122.042 347.2 122.989C346.116 123.161 345.566 124.5 345.013 125.511Z" fill="#73D6EC"/>
<path d="M229.586 92.8533C232.257 77.9664 266.258 73.5648 276.243 81.9474C277.597 83.0847 277.143 94.4859 276.994 96.7021C276.966 97.1112 276.565 97.9909 276.191 98.1885C268.443 100.769 253.8 93.8175 251.207 106.225C250.443 109.88 250.55 115.015 250.624 119.273L251.195 121.979C254.67 121.989 273.109 121.241 275.073 122.995C276.631 124.384 276.328 134.033 276.259 136.187C276.232 137.143 276.078 138.968 275.28 139.635C272.633 141.853 255.681 140.122 251.245 140.623C249.967 147.492 250.308 158.525 250.309 165.844L250.451 203.113C250.414 205.068 250.715 209.6 249.689 210.981C246.507 213.338 231.635 211.921 226.562 212.355C225.527 211.507 225.273 210.803 225.213 209.449C224.952 203.526 225.065 197.542 225.065 191.608L225.119 154.872C225.18 134.818 226.657 141.806 212.438 140.207C211.982 140.156 211.262 139.486 211.11 138.873C210.218 135.274 210.163 130.646 211.057 127.048C211.931 124.786 219.279 124.004 221.395 123.47C222.573 123.172 223.756 122.778 224.968 122.349C225.141 111.132 223.922 102.996 229.586 92.8533Z" fill="white"/>
<path d="M229.586 92.8533C232.258 77.9664 266.258 73.5648 276.243 81.9474C277.597 83.0847 277.143 94.4859 276.994 96.7021C276.967 97.1112 276.565 97.9909 276.191 98.1885C268.443 100.769 253.8 93.8175 251.207 106.225C250.443 109.88 250.55 115.015 250.624 119.273C250.589 119.224 250.554 119.176 250.519 119.127C250.114 116.035 250.179 108.563 250.708 105.841C253.39 92.0556 271.019 100.16 275.877 97.0281C276.895 95.7803 276.251 86.5091 276.26 84.3232C276.268 82.6714 274.188 81.027 272.622 80.5598C260.264 76.8698 245.188 77.8412 234.755 85.9921C233.11 87.2757 230.867 91.9139 229.586 92.8533Z" fill="#73D6EC"/>
<path d="M421.965 118.317L422.334 118.306C430.937 118.083 444.218 119.541 451.741 124.506C453.681 125.785 452.891 133.719 453.073 135.868C453.194 137.289 452.94 138.894 451.832 139.997C449.686 141.289 440.919 139.02 438.163 138.599C435.672 138.223 433.16 137.999 430.643 137.928C426.777 137.838 418.515 137.437 416.129 140.427C409.245 149.047 419.489 152.709 425.206 155.083C440.677 161.503 458.801 165.721 458.11 186.173C457.846 194.03 456.553 199.064 450.874 204.958C441.624 214.59 431.859 215.232 419.318 215.308C410.621 215.311 398.055 213.561 390.733 208.568C389.217 204.666 390.007 200.945 389.801 196.906C389.735 195.662 390.128 191.255 391.966 191.436C395.799 191.815 399.629 193.646 403.506 194.549C410.811 196.25 417.94 196.361 425.393 196.174C433.152 196.88 438.74 185.415 431.724 181.211C416.124 172 392.409 171.541 390.456 148.912C388.73 128.926 403.849 119.772 421.965 118.317Z" fill="white"/>
<path d="M474.429 39.3145C476.468 39.7718 477.455 43.8175 478.366 45.6042C481.219 51.209 483.393 58.918 487.149 63.9291C492.022 69.5988 500.466 71.5811 507.006 74.8113C508.869 75.7314 513.364 76.9232 513.298 79.1872C510.266 82.7691 494.823 86.131 488.544 92.4711C482.625 98.4444 478.553 115.106 474.998 118.299C474.946 118.277 474.897 118.255 474.847 118.231C474.765 118.19 474.688 118.143 474.605 118.102C471.988 116.787 467.454 103.187 465.773 99.7234C464.661 97.4277 463.352 95.2236 461.635 93.3241C456.016 87.1065 444.169 85.3003 437.4 80.6255C436.644 80.1016 436.06 79.6358 435.89 78.7197C437.557 75.6505 455.694 70.1285 460.716 65.5393C467.388 59.4403 470.117 43.1926 474.429 39.3145Z" fill="white"/>
<path d="M58.1621 8.19051C58.5555 6.78607 60.9278 3.95655 62.1005 2.98769C64.5303 0.979813 67.6713 0.00352772 70.8247 0.408571C75.8312 1.05136 77.9925 4.5 80.7752 8.15611C81.8604 5.88958 82.5675 5.0817 84.2995 3.40457C89.7339 -2.25035 101.645 0.617696 103.292 8.27031C104.449 13.6429 104.083 20.8517 104.073 26.4117L104.139 44.3431C104.137 45.3127 104.136 46.7609 103.713 47.6101C102.201 48.8316 94.4432 48.9072 92.988 47.6131C92.8158 47.245 92.6468 46.9665 92.6138 46.5628L92.7175 43.9521L92.6809 43.7201C92.3758 41.6704 92.6644 39.2748 92.6179 37.3385C92.5021 32.492 93.1853 18.2362 92.0528 14.3936C91.8151 13.5587 91.3085 12.8251 90.6119 12.3073C89.5619 11.5296 87.6519 11.3128 86.3915 11.5709C80.513 12.7748 81.2523 19.9522 81.1159 24.4013C80.8792 32.107 81.5157 40.3171 80.8333 47.9444C77.785 48.1035 74.4445 48.3979 71.3978 48.005C70.3209 47.866 70.1069 47.5622 69.8163 46.628L69.8532 44.2886C69.0299 38.8431 70.5936 17.2071 68.9496 14.0072C68.3559 12.8273 67.304 11.9424 66.04 11.5591C62.8717 10.5798 58.979 13.0549 58.7226 16.2867C58.079 24.3972 58.6177 32.7179 58.4447 40.8655C58.4061 42.672 58.6403 45.813 58.1299 47.4585C56.9264 48.3646 48.977 48.3475 47.598 47.6448C46.8113 46.3072 46.9566 23.3221 47.1025 20.3564C47.0386 15.508 47.0529 10.6587 47.1456 5.81061C47.1591 4.58475 47.1338 3.07107 47.2268 1.87217C51.5829 1.47759 53.6264 1.45282 57.9417 1.90381C57.9546 3.14288 57.8404 7.29842 58.1621 8.19051Z" fill="#FEFEFE"/>
<path d="M80.0424 47.1399C80.3822 37.2452 79.7152 26.7617 80.7627 16.8772C81.108 14.5589 82.5808 12.6699 84.1321 11.3574C86.1307 9.66624 91.6118 10.9221 92.1189 13.113C93.5216 19.1729 94.0452 38.4631 92.7176 43.9521L92.681 43.7201C92.3759 41.6704 92.6645 39.2748 92.618 37.3385C92.5022 32.492 93.1854 18.2363 92.0529 14.3936C91.8152 13.5587 91.3086 12.8251 90.612 12.3073C89.562 11.5297 87.652 11.3128 86.3916 11.5709C80.5131 12.7748 81.2524 19.9522 81.116 24.4013C80.8793 32.107 81.5158 40.3171 80.8334 47.9444C77.7851 48.1035 74.4446 48.3979 71.3979 48.005C70.321 47.866 70.107 47.5622 69.8164 46.6281C72.2685 47.5867 77.2698 47.1965 80.0424 47.1399Z" fill="white"/>
<path d="M57.4407 47.1283C57.7257 38.4739 57.4951 29.7663 57.5667 21.0218C57.6115 15.5067 58.6606 9.44781 65.9618 10.8558C67.6757 11.1863 69.6364 12.9663 69.7893 14.8069C70.1569 23.5506 69.8485 32.3627 69.9401 41.1204C69.9509 42.1503 69.9715 43.2799 69.8532 44.2889C69.0299 38.8434 70.5936 17.2075 68.9496 14.0076C68.3558 12.8277 67.304 11.9427 66.04 11.5594C62.8717 10.5801 58.979 13.0552 58.7226 16.287C58.079 24.3975 58.6177 32.7182 58.4447 40.8659C58.4061 42.6723 58.6403 45.8133 58.1299 47.4588C56.9264 48.3649 48.977 48.3479 47.598 47.6451C46.8113 46.3075 46.9566 23.3225 47.1025 20.3567C47.5176 22.4956 47.2945 25.3975 47.371 27.6142C47.5776 33.5897 46.947 41.2563 47.683 47.0907C51.0293 47.1685 54.0938 47.2299 57.4407 47.1283Z" fill="white"/>
<path d="M84.2998 3.4055C89.7341 -2.24941 101.645 0.61863 103.292 8.27124C104.449 13.6438 104.083 20.8526 104.073 26.4126L104.139 44.344C104.137 45.3137 104.136 46.7619 103.713 47.611C102.202 48.8325 94.4435 48.9082 92.9883 47.6141C92.816 47.2459 92.6471 46.9674 92.6141 46.5638C94.3194 48.0056 102.988 48.5909 103.103 46.7256C104.043 36.8083 102.688 26.021 103.248 16.1701C103.953 3.74946 96.1073 -2.38892 84.2998 3.4055Z" fill="white"/>
<path d="M47.2277 1.87354C51.5837 1.47896 53.6272 1.45419 57.9425 1.90518C57.9555 3.14425 57.8413 7.29979 58.1629 8.19188C58.1161 8.38807 57.9571 8.53886 57.8149 8.7257C57.1529 8.06695 57.1958 3.62607 57.1639 2.39636C53.726 2.31326 50.9025 2.46267 47.4921 2.68473C47.4566 4.02808 47.4335 4.51017 47.1465 5.81198C47.16 4.58612 47.1347 3.07244 47.2277 1.87354Z" fill="#9DD1F1"/>
<path d="M212.502 0.47759C216.959 -0.0240358 221.443 1.16577 225.065 3.81121C238.649 13.8181 236.807 46.2246 216.886 49.086C215.763 49.1383 214.413 49.225 213.305 49.1702C194.537 48.2421 191.649 21.3987 199.628 8.6643C202.835 3.54513 206.853 1.71143 212.502 0.47759ZM221.303 16.3395C220.36 13.8589 218.888 10.2204 216.171 9.23114C210.094 7.01964 207.498 16.7547 207.69 21.2872C207.999 28.5711 206.254 43.0032 217.959 39.4899C223.346 32.2952 221.172 24.7504 221.303 16.3395Z" fill="white"/>
<path d="M214.488 1.08215C226.133 1.0417 232.361 11.6837 232.636 22.1361C232.853 30.3559 232.451 36.913 226.507 43.2069C223.289 46.6131 220.156 48.2333 215.454 48.3902C203.35 48.1409 197.492 40.6415 196.25 29.0092C194.836 15.7694 199.192 2.34983 214.488 1.08215ZM221.304 16.34C220.361 13.8594 218.889 10.2209 216.172 9.23171C210.095 7.02021 207.499 16.7553 207.691 21.2878C208 28.5717 206.255 43.0038 217.96 39.4905C223.347 32.2958 221.173 24.751 221.304 16.34Z" fill="#FEFEFE"/>
<path d="M217.959 39.4898C217.588 40.23 217.105 40.4842 216.361 40.7333C211.631 42.3157 209.132 38.9452 208.025 34.7666C206.553 29.099 206.311 23.4435 207.265 17.6629C208.125 12.4424 209.438 9.17762 214.819 7.86426C218.935 9.20266 221.272 11.8819 221.303 16.3393C220.36 13.8587 218.888 10.2202 216.171 9.231C210.094 7.0195 207.498 16.7546 207.69 21.2871C207.999 28.571 206.254 43.0031 217.959 39.4898Z" fill="white"/>
<path d="M6.67091 4.22007C12.2847 -1.18087 27.8121 -1.6437 33.1377 4.2652C39.45 11.2687 35.7772 24.9692 37.042 33.7601C37.6638 38.168 40.1115 39.0906 40.257 40.8564C39.9585 42.8945 38.0818 43.9781 36.7765 45.3162C31.3146 50.9167 30.542 47.1043 26.6009 42.9008C21.2257 47.4213 18.6201 49.3526 11.2892 48.878C-1.80157 48.0302 -3.22583 30.692 5.55603 23.7747C9.56596 20.6161 19.7553 18.4932 24.8083 18.5688L25.1016 17.2109C24.7715 15.6579 25.0405 13.8129 24.3588 12.262C22.8402 8.80707 19.5155 7.91223 16.2338 9.64192C13.3333 11.1705 12.779 12.5837 11.8461 15.5376C8.18037 15.7616 5.91444 15.6411 2.41509 14.7182C1.87878 14.634 2.01511 14.6274 1.53174 14.2212C0.582142 11.2893 4.6009 6.12063 6.67091 4.22007ZM25.0372 28.6415L24.8281 25.1634C21.1576 25.276 16.8516 25.9 14.1843 28.66C10.5538 32.4171 11.7894 40.6117 18.0525 40.2579C20.6099 40.1134 20.9278 39.3416 22.7015 37.8568C25.0416 34.3603 24.8358 32.8254 25.0372 28.6415Z" fill="#FEFEFE"/>
<path d="M6.67091 4.22007C12.2847 -1.18087 27.8121 -1.6437 33.1377 4.2652C39.45 11.2687 35.7772 24.9692 37.042 33.7601C37.6638 38.168 40.1115 39.0906 40.257 40.8564C39.9585 42.8945 38.0818 43.9781 36.7765 45.3162C31.3146 50.9167 30.542 47.1043 26.6009 42.9008C21.2257 47.4213 18.6201 49.3526 11.2892 48.878C-1.80157 48.0302 -3.22583 30.692 5.55603 23.7747C9.56596 20.6161 19.7553 18.4932 24.8083 18.5688C20.5574 21.1135 11.1461 19.798 6.12891 23.9651C-2.39409 31.044 -1.52313 46.6125 11.2307 48.066C18.5857 48.9041 21.0311 46.0284 26.2861 42.0498C28.0132 43.2536 30.1783 45.997 32.178 47.7267C34.76 45.6594 37.3204 43.5654 39.8592 41.4455C38.8648 39.8828 37.3482 38.0447 36.8684 36.2273C34.6565 27.8512 37.5441 17.1154 35.135 8.8522C34.4111 6.36966 31.8963 3.69313 29.4236 2.66263C20.2866 -1.14538 15.0003 0.974772 6.67091 4.22007Z" fill="white"/>
<path d="M11.2183 14.727C12.3164 11.919 13.1919 10.091 15.9913 8.81757C20.7872 6.63606 25.9149 9.9207 25.2581 15.2782C25.1756 15.9512 25.3718 16.5324 25.1016 17.2104C24.7714 15.6573 25.0405 13.8124 24.3588 12.2615C22.8402 8.80656 19.5154 7.91172 16.2337 9.64141C13.3333 11.17 12.779 12.5832 11.846 15.5371C8.18033 15.7611 5.91439 15.6406 2.41504 14.7177C5.34946 14.7058 8.28392 14.7088 11.2183 14.727Z" fill="white"/>
<path d="M22.7017 37.8566C22.7076 39.3287 19.6189 40.8248 18.3274 40.9461C11.5294 41.5713 9.42042 32.8351 13.2264 28.2566C16.0765 24.828 21.1171 24.9458 25.2853 24.4932C25.2993 26.1279 25.3326 27.0115 25.0374 28.6413L24.8283 25.1632C21.1578 25.2757 16.8517 25.8998 14.1845 28.6597C10.554 32.4168 11.7896 40.6115 18.0527 40.2576C20.6101 40.1132 20.928 39.3413 22.7017 37.8566Z" fill="white"/>
<path d="M132.396 0.00292969C134.776 0.0912577 137.136 0.483914 139.416 1.17183C153.631 5.60171 146.552 23.2247 148.741 34.1859C149.122 36.0927 151.265 39.5741 152.28 41.5242C151.201 43.0954 150.012 44.0981 148.772 45.4456C143.89 50.7491 141.863 47.3676 138.631 42.8321C137.389 43.8375 135.543 45.3746 134.234 46.207C130.231 48.7025 125.393 49.4875 120.805 48.386C117.109 47.5154 115.248 45.7557 113.351 42.6843C110.999 36.9557 110.815 31.3866 114.839 26.2212C119.978 19.6271 129.154 19.3732 136.819 18.5119C136.879 16.3708 137.094 14.6351 136.231 12.5626C134.842 9.22949 131.313 7.8754 128.03 9.47686C125.14 10.8871 124.388 12.6919 123.334 15.5486C121.084 15.5833 115.254 15.5671 113.587 14.3602C111.743 13.0251 115.985 6.55158 116.995 5.54393C121.329 1.21943 126.536 0.201874 132.396 0.00292969ZM136.785 25.2372C133.697 25.4772 127.646 25.943 125.918 28.5568C122.08 34.3664 123.945 41.5429 131.925 39.8551C137.441 36.4169 136.939 30.844 136.785 25.2372Z" fill="white"/>
<path d="M129.476 0.77085C132.619 0.599698 138.033 1.25294 141.172 2.67719C151.696 7.45185 145.947 24.7 147.777 33.7937C148.357 36.6769 149.9 38.7953 150.899 41.3714C149.93 42.9157 146.264 47.4963 144.367 47.4661C142.332 47.4339 139.862 43.2357 138.32 41.7055C137.426 42.3763 136.496 43.1344 135.691 43.9071C130.196 49.1798 119.659 49.8608 114.602 43.5034C111.98 38.9508 111.336 35.9532 113.119 30.9075C116.181 22.2423 123.142 20.6226 131.279 19.9988C132.78 19.8835 135.105 19.5594 136.517 18.9546C138.18 18.1139 137.22 12.0606 136.327 11.0117C131.136 4.91456 124.705 8.36788 122.874 14.7118C120.756 14.7319 116.59 15.0084 114.738 14.2102C112.887 13.4125 115.095 8.79796 115.917 7.60485C119.108 2.97492 124.323 1.76172 129.476 0.77085ZM136.786 25.2374C133.698 25.4774 127.646 25.9432 125.919 28.557C122.081 34.3666 123.945 41.5431 131.926 39.8553C137.441 36.4171 136.94 30.8442 136.786 25.2374Z" fill="#FEFEFE"/>
<path d="M131.926 39.8551C129.954 41.62 126.59 41.2783 124.984 39.1656C122.416 35.8306 123.091 29.4655 126.385 26.8063C129.097 24.617 133.476 24.9068 136.786 25.2373C133.698 25.4772 127.646 25.9431 125.919 28.5569C122.081 34.3664 123.945 41.543 131.926 39.8551Z" fill="white"/>
<path d="M252.42 7.63695C256.308 -1.93164 269.682 -1.87414 273.662 7.09459C275.886 12.1048 275.36 20.9676 275.363 26.4863L275.341 47.9241C273.142 48.3671 266.639 48.838 264.591 47.8319C262.943 47.0227 263.412 41.5276 263.424 39.5649L263.481 24.9253C263.493 20.5337 264.694 9.92439 257.515 11.3674C252.062 12.6967 252.089 19.1149 251.986 23.5715C251.812 31.1781 252.471 39.0052 251.828 46.537C251.588 49.3415 242.864 48.3394 240.827 48.1921C240.344 44.7124 240.47 33.1313 240.549 28.9061C240.707 20.3553 240.195 10.1836 240.645 1.85133C244.512 1.4284 247.229 1.49471 251.124 1.8106C251.219 3.15781 251.462 7.89367 251.731 8.97892C252.117 8.43685 252.168 8.26184 252.42 7.63695Z" fill="#FEFEFE"/>
<path d="M252.42 7.63695C256.308 -1.93164 269.682 -1.87414 273.662 7.09459C275.886 12.1048 275.36 20.9676 275.363 26.4863L275.341 47.9241C273.142 48.3671 266.639 48.838 264.591 47.8319C262.943 47.0227 263.412 41.5276 263.424 39.5649L263.481 24.9253C263.493 20.5337 264.694 9.92439 257.515 11.3674C252.062 12.6967 252.089 19.1149 251.986 23.5715C251.812 31.1781 252.471 39.0052 251.828 46.537C251.588 49.3415 242.864 48.3394 240.827 48.1921C240.344 44.7124 240.47 33.1313 240.549 28.9061C240.707 20.3553 240.195 10.1836 240.645 1.85133C244.512 1.4284 247.229 1.49471 251.124 1.8106C251.219 3.15781 251.462 7.89367 251.731 8.97892L251.193 9.32783C250.468 8.46134 250.64 3.76345 250.631 2.35708C247.453 2.19693 244.267 2.27123 241.099 2.57941L241.037 30.3991C241.027 35.4363 240.842 42.5314 241.297 47.3793C243.072 47.6655 249.219 48.234 250.528 47.0037C252.074 44.6007 250.931 25.6834 251.053 21.2628C251.139 18.1548 251.789 14.3554 254.175 12.1615C255.407 11.0281 257.131 10.4904 258.792 10.595C261.027 10.7361 262.595 12.2509 263.31 14.3061C265.146 19.5788 262.193 44.7152 264.587 46.9135C266.145 48.3443 272.609 47.6415 274.736 47.6047L274.758 47.1793C275.035 41.1292 274.931 34.5219 274.857 28.4135C274.736 18.5783 277.077 2.03899 263.139 1.15048C257.027 0.760847 256.06 4.23673 252.577 7.49221L252.42 7.63695Z" fill="white"/>
<path d="M39.6343 52.5186C42.4039 53.5356 44.8328 55.4634 47.4071 56.7798C82.8254 74.8925 125.281 78.3942 162.499 63.627C164.725 62.7434 169.778 60.1156 171.737 62.1942C172.196 64.8781 169.076 66.7008 167.13 67.7572C159.707 72.3208 157.389 73.3601 149.019 76.4865C122.055 86.5589 92.1816 85.425 66.0582 73.3375C62.1798 71.5611 58.3115 69.4192 54.6648 67.2077C52.5787 65.9428 40.0233 57.3568 39.5958 55.9716C39.5727 55.8973 39.5589 55.8205 39.5396 55.7454C39.2752 54.7094 39.5008 53.5669 39.6343 52.5186Z" fill="#EF9A16"/>
<path d="M159.583 1.84537C162.021 1.34236 167.267 1.49701 169.994 1.50554L186.457 1.57598C187.646 1.67008 189.133 1.74355 190.278 1.97442C190.348 3.72309 190.549 6.5361 190.193 8.15627L190.159 8.32137C189.47 11.4134 174.575 29.8968 174.235 32.985C174.814 33.1556 175.358 33.3168 175.945 33.4604C177.109 33.3861 177.629 33.3724 178.784 33.4803C182.289 33.3958 187.305 34.6079 190.058 36.8703C191.65 38.1787 191.647 45.4896 190.61 47.0112C190.102 47.1527 184.446 44.9665 183.293 44.6291C178.648 43.2704 173.057 43.2995 168.294 43.7885C166.054 44.0185 163.234 45.0741 161.259 46.0809C160.596 46.4193 159.772 46.842 159.129 47.2479C158.887 47.1722 158.68 47.1081 158.51 47.055C157.293 45.5765 157.701 42.3552 157.879 40.456C157.87 39.6423 157.895 37.3161 158.189 36.6818C162.346 27.7244 170.485 19.3271 175.296 10.8911C169.958 10.7291 164.618 10.8323 159.28 10.5777C159.254 9.24923 159.028 2.76964 159.583 1.84537Z" fill="#FEFEFE"/>
<path d="M178.784 33.4807C182.289 33.3962 187.305 34.6083 190.058 36.8707C191.65 38.1791 191.647 45.49 190.61 47.0117C190.102 47.1531 184.446 44.9669 183.293 44.6296C178.648 43.2708 173.057 43.3 168.294 43.7889C166.054 44.019 163.234 45.0745 161.259 46.0813C160.596 46.4198 159.772 46.8424 159.129 47.2483C158.887 47.1726 158.68 47.1085 158.51 47.0554C157.293 45.577 157.701 42.3556 157.879 40.4564C157.889 42.2461 157.52 44.8203 159.011 45.9443C160 45.5362 160.984 45.1141 161.96 44.6772C162.813 44.3029 165.961 42.9378 166.92 42.8674C171.701 42.5163 178.107 42.3347 182.718 43.664C185.369 44.4279 188.094 45.7206 190.604 46.6974C190.703 44.416 191.018 40.5973 190.335 38.5374C189.204 35.1336 181.637 34.9784 178.784 33.4807Z" fill="white"/>
<path d="M186.457 1.57617C187.645 1.67028 189.133 1.74375 190.278 1.97461C190.347 3.72328 190.549 6.5363 190.193 8.15647L190.158 8.32157C189.47 11.4136 174.575 29.897 174.235 32.9852C174.813 33.1558 175.357 33.317 175.945 33.4606C175.111 33.5883 174.536 33.7809 173.802 33.4238C172.852 30.8821 184.997 15.5092 186.96 12.4047C188.381 10.1566 190.082 7.4526 189.683 4.36827C189.315 1.53022 188.223 3.01033 186.457 1.57617Z" fill="white"/>
<path d="M159.28 10.5781C159.253 9.24957 159.027 2.76998 159.583 1.8457C159.815 3.43808 159.574 7.56115 159.642 9.51482C162.238 9.57041 173.946 9.45346 175.159 10.4474L175.295 10.8915C169.958 10.7294 164.618 10.8326 159.28 10.5781Z" fill="white"/>
<path d="M513.68 20.4219C516.355 22.2093 518.347 32.6692 521.514 35.5785C524.249 38.0924 535.029 40.8146 536 43.6199C535.015 45.5733 525.033 47.4367 521.519 51.5417C517.07 56.7392 517.007 60.8304 514.038 66.4105C511.325 64.366 509.768 54.9746 505.96 51.2313C502.232 47.5661 493.056 46.2541 491.457 43.2009C492.128 41.4891 502.754 38.3987 505.415 35.8344C510.021 31.3974 509.886 25.5498 513.68 20.4219Z" fill="white"/>
<path d="M174.457 50.3496C177.213 50.4179 181.898 50.2558 183.873 52.1687C184.536 53.7187 184.483 57.054 184.553 58.7713C184.71 62.6575 178.694 76.9245 174.256 76.7044L173.801 76.1747C173.208 73.7529 174.728 70.4031 175.676 68.1853C176.609 65.9281 178.55 60.4074 177.594 58.0922C174.021 54.077 159.629 58.4788 157.674 55.8144C158.123 54.5137 162.21 52.0281 163.569 51.6588C167.064 50.7095 170.845 50.4776 174.457 50.3496Z" fill="#E5A029"/>
<path d="M250.452 203.112C250.946 207.27 252.477 213.201 245.947 213.049C242.703 212.973 228.473 213.885 226.562 212.354C231.635 211.921 246.508 213.337 249.69 210.98C250.716 209.6 250.414 205.068 250.452 203.112Z" fill="#73D6EC"/>
</svg>
